{"glyphs":{"0":{"ha":1097,"x_min":0,"x_max":1042,"o":"m 1042 208 q 938 26 1042 78 q 833 0 894 4 l 417 0 q 208 26 296 4 q 0 208 0 78 l 0 903 q 53 1007 8 964 q 417 1111 157 1111 l 833 1111 q 938 1085 894 1107 q 1042 903 1042 1033 l 1042 208 m 833 208 l 833 694 l 417 694 l 417 208 l 833 208 z "},"1":{"ha":750,"x_min":0,"x_max":694,"o":"m 694 0 q 331 104 435 0 q 278 208 286 147 l 278 694 l 0 694 l 0 903 q 104 1085 0 1033 q 208 1111 147 1107 l 278 1111 q 643 1007 539 1111 q 694 903 686 964 l 694 0 z "},"2":{"ha":1097,"x_min":0,"x_max":1042,"o":"m 1042 0 l 208 0 q 104 26 147 4 q 0 208 0 78 l 0 417 q 104 599 0 547 q 208 625 147 621 l 625 625 l 625 694 l 0 694 l 0 903 q 104 1085 0 1033 q 208 1111 147 1107 l 625 1111 q 990 1007 886 1111 q 1042 903 1033 964 l 1042 625 q 990 521 1033 564 q 625 417 886 417 l 208 417 l 208 208 l 625 208 q 833 182 747 204 q 1042 0 1042 131 z "},"3":{"ha":1097,"x_min":0,"x_max":1042,"o":"m 1042 208 q 990 104 1033 147 q 625 0 886 0 l 0 0 q 104 182 0 131 q 208 208 147 204 l 625 208 l 625 417 l 0 417 q 26 521 4 478 q 208 625 78 625 l 625 625 l 625 694 l 0 694 l 0 903 q 104 1085 0 1033 q 208 1111 147 1107 l 625 1111 q 990 1007 886 1111 q 1042 903 1033 964 l 1042 208 z "},"4":{"ha":1097,"x_min":0,"x_max":1042,"o":"m 1042 0 q 678 104 782 0 q 625 208 633 147 l 625 278 l 208 278 q 26 382 78 278 q 0 486 4 425 l 0 903 q 104 1085 0 1033 q 208 1111 147 1107 l 208 486 l 625 486 l 625 903 q 678 1007 633 964 q 1042 1111 782 1111 l 1042 0 z "},"5":{"ha":1097,"x_min":0,"x_max":1042,"o":"m 1042 208 q 833 26 1042 78 q 625 0 747 4 l 208 0 q 104 26 147 4 q 0 208 0 78 l 625 208 l 625 417 l 208 417 q 26 521 78 417 q 0 625 4 564 l 0 903 q 26 1007 4 964 q 208 1111 78 1111 l 625 1111 q 833 1085 747 1107 q 1042 903 1042 1033 l 1042 694 l 208 694 l 208 625 l 625 625 q 833 599 747 621 q 1042 417 1042 547 l 1042 208 z "},"6":{"ha":1097,"x_min":0,"x_max":1042,"o":"m 1042 208 q 938 26 1042 78 q 833 0 894 4 l 417 0 q 208 26 296 4 q 0 208 0 78 l 0 903 q 53 1007 8 964 q 417 1111 157 1111 l 833 1111 q 938 1085 894 1107 q 1042 903 1042 1033 l 1042 694 l 417 694 l 417 625 l 833 625 q 938 599 894 621 q 1042 417 1042 547 l 1042 208 m 833 208 l 833 417 l 417 417 l 417 208 l 833 208 z "},"7":{"ha":1097,"x_min":0,"x_max":1042,"o":"m 1042 0 q 678 104 782 0 q 625 208 633 147 l 625 694 l 0 694 l 0 903 q 104 1085 0 1033 q 208 1111 147 1107 l 625 1111 q 990 1007 886 1111 q 1042 903 1033 964 l 1042 0 z "},"8":{"ha":1097,"x_min":0,"x_max":1042,"o":"m 1042 208 q 938 26 1042 78 q 833 0 894 4 l 417 0 q 208 26 296 4 q 0 208 0 78 l 0 903 q 53 1007 8 964 q 417 1111 157 1111 l 833 1111 q 938 1085 894 1107 q 1042 903 1042 1033 l 1042 208 m 833 625 l 833 694 l 417 694 l 417 625 l 833 625 m 833 208 l 833 417 l 417 417 l 417 208 l 833 208 z "},"9":{"ha":1097,"x_min":0,"x_max":1042,"o":"m 1042 208 q 990 104 1033 147 q 625 0 886 0 l 208 0 q 104 26 147 4 q 0 208 0 78 l 625 208 l 625 278 l 208 278 q 104 304 147 282 q 0 486 0 356 l 0 903 q 104 1085 0 1033 q 208 1111 147 1107 l 625 1111 q 833 1085 747 1107 q 1042 903 1042 1033 l 1042 208 m 625 486 l 625 694 l 208 694 l 208 486 l 625 486 z "}," ":{"ha":889,"x_min":0,"x_max":0,"o":""},"!":{"ha":472,"x_min":0,"x_max":417,"o":"m 417 278 q 208 304 296 282 q 0 486 0 356 l 0 1111 q 208 1085 122 1107 q 417 903 417 1033 l 417 278 m 313 104 q 282 31 313 61 q 208 0 251 0 q 135 31 165 0 q 104 104 104 61 q 135 178 104 147 q 208 208 165 208 q 282 178 251 208 q 313 104 313 147 z "},"\"":{"ha":681,"x_min":0,"x_max":625,"o":"m 625 833 l 556 833 q 451 860 494 838 q 347 1042 347 911 l 347 1111 l 417 1111 q 521 1085 478 1107 q 625 903 625 1033 l 625 833 m 278 833 l 208 833 q 104 860 147 838 q 0 1042 0 911 l 0 1111 l 69 1111 q 174 1085 131 1107 q 278 903 278 1033 l 278 833 z "},"$":{"ha":1097,"x_min":0,"x_max":1042,"o":"m 1042 417 q 938 235 1042 286 q 833 208 894 213 l 764 208 q 713 104 756 147 q 347 0 608 0 l 347 208 l 0 208 q 104 390 0 339 q 208 417 147 413 l 347 417 l 347 486 l 208 486 q 26 590 78 486 q 0 694 4 633 l 0 764 q 26 868 4 825 q 208 972 78 972 l 347 972 q 400 1076 356 1033 q 764 1181 504 1181 l 764 972 l 833 972 q 938 946 894 968 q 1042 764 1042 894 l 764 764 l 764 694 l 833 694 q 938 668 894 690 q 1042 486 1042 617 l 1042 417 m 833 417 l 833 486 l 764 486 l 764 417 l 833 417 m 347 694 l 347 764 l 208 764 l 208 694 l 347 694 z "},"%":{"ha":1097,"x_min":0,"x_max":1042,"o":"m 208 1007 q 178 933 208 964 q 104 903 147 903 q 31 933 61 903 q 0 1007 0 964 q 31 1081 0 1050 q 104 1111 61 1111 q 178 1081 147 1111 q 208 1007 208 1050 m 1042 625 q 990 521 1033 564 q 625 417 886 417 l 208 417 l 208 0 q 104 26 147 4 q 0 208 0 78 l 0 625 q 26 729 4 686 q 208 833 78 833 l 625 833 l 625 1111 q 833 1085 747 1107 q 1042 903 1042 1033 l 1042 625 m 972 174 q 922 51 972 101 q 799 0 871 0 q 676 51 726 0 q 625 174 625 101 q 676 297 625 246 q 799 347 726 347 q 922 297 871 347 q 972 174 972 246 z "},"&":{"ha":1306,"x_min":0,"x_max":1250,"o":"m 1250 486 q 1146 304 1250 356 q 1042 278 1103 282 l 1042 208 q 938 26 1042 78 q 833 0 894 4 l 417 0 q 53 104 157 0 q 0 208 8 147 l 0 764 q 53 868 8 825 q 417 972 157 972 l 486 972 q 590 1154 486 1103 q 694 1181 633 1176 q 799 1154 756 1176 q 903 972 903 1103 q 876 868 899 911 q 694 764 825 764 l 694 694 l 1250 694 l 1250 486 m 833 208 l 833 278 l 694 278 q 513 382 564 278 q 486 486 490 425 l 486 764 l 417 764 l 417 208 l 833 208 z "},"'":{"ha":333,"x_min":0,"x_max":278,"o":"m 278 833 l 208 833 q 104 860 147 838 q 0 1042 0 911 l 0 1111 l 69 1111 q 174 1085 131 1107 q 278 903 278 1033 l 278 833 z "},"(":{"ha":750,"x_min":0,"x_max":694,"o":"m 694 208 q 590 26 694 78 q 486 0 547 4 l 417 0 q 53 104 157 0 q 0 208 8 147 l 0 903 q 53 1007 8 964 q 417 1111 157 1111 l 486 1111 q 590 1085 547 1107 q 694 903 694 1033 l 694 694 l 417 694 l 417 208 l 694 208 z "},")":{"ha":750,"x_min":0,"x_max":694,"o":"m 694 208 q 643 104 686 147 q 278 0 539 0 l 208 0 q 104 26 147 4 q 0 208 0 78 l 278 208 l 278 694 l 0 694 l 0 903 q 104 1085 0 1033 q 208 1111 147 1107 l 278 1111 q 643 1007 539 1111 q 694 903 686 964 l 694 208 z "},"+":{"ha":1028,"x_min":0,"x_max":972,"o":"m 972 278 l 694 278 l 694 0 q 331 104 435 0 q 278 208 286 147 l 278 278 l 208 278 q 26 382 78 278 q 0 486 4 425 l 0 694 l 278 694 l 278 972 q 643 868 539 972 q 694 764 686 825 l 694 694 l 764 694 q 946 590 894 694 q 972 486 968 547 l 972 278 z "},",":{"ha":333,"x_min":0,"x_max":278,"o":"m 278 139 q 174 -43 278 8 q 69 -69 131 -65 l 0 -69 l 0 0 q 104 182 0 131 q 208 208 147 204 l 278 208 l 278 139 z "},"-":{"ha":889,"x_min":0,"x_max":833,"o":"m 833 278 l 208 278 q 26 382 78 278 q 0 486 4 425 l 0 694 l 625 694 q 807 590 756 694 q 833 486 829 547 l 833 278 z "},"‐":{"ha":889,"x_min":0,"x_max":833,"o":"m 833 278 l 208 278 q 26 382 78 278 q 0 486 4 425 l 0 694 l 625 694 q 807 590 756 694 q 833 486 829 547 l 833 278 z "},".":{"ha":333,"x_min":0,"x_max":278,"o":"m 278 0 l 208 0 q 104 26 147 4 q 0 208 0 78 l 0 278 l 69 278 q 174 251 131 274 q 278 69 278 200 l 278 0 z "},":":{"ha":333,"x_min":0,"x_max":278,"o":"m 278 625 l 208 625 q 104 651 147 629 q 0 833 0 703 l 0 903 l 69 903 q 174 876 131 899 q 278 694 278 825 l 278 625 m 278 208 l 208 208 q 104 235 147 213 q 0 417 0 286 l 0 486 l 69 486 q 174 460 131 482 q 278 278 278 408 l 278 208 z "},";":{"ha":333,"x_min":0,"x_max":278,"o":"m 278 625 l 208 625 q 104 651 147 629 q 0 833 0 703 l 0 903 l 69 903 q 174 876 131 899 q 278 694 278 825 l 278 625 m 278 417 q 174 235 278 286 q 69 208 131 213 l 0 208 l 0 278 q 104 460 0 408 q 208 486 147 482 l 278 486 l 278 417 z "},"<":{"ha":750,"x_min":0,"x_max":694,"o":"m 694 208 q 590 26 694 78 q 486 0 547 4 l 417 0 q 53 104 157 0 q 0 208 8 147 l 0 903 q 53 1007 8 964 q 417 1111 157 1111 l 486 1111 q 590 1085 547 1107 q 694 903 694 1033 l 694 694 l 417 694 l 417 208 l 694 208 z "},"=":{"ha":889,"x_min":0,"x_max":833,"o":"m 833 542 l 208 542 q 26 646 78 542 q 0 750 4 689 l 0 792 l 625 792 q 807 688 756 792 q 833 583 829 644 l 833 542 m 833 194 l 208 194 q 26 299 78 194 q 0 403 4 342 l 0 444 l 625 444 q 807 340 756 444 q 833 236 829 297 l 833 194 z "},">":{"ha":750,"x_min":0,"x_max":694,"o":"m 694 208 q 643 104 686 147 q 278 0 539 0 l 208 0 q 104 26 147 4 q 0 208 0 78 l 278 208 l 278 694 l 0 694 l 0 903 q 104 1085 0 1033 q 208 1111 147 1107 l 278 1111 q 643 1007 539 1111 q 694 903 686 964 l 694 208 z "},"?":{"ha":1097,"x_min":0,"x_max":1042,"o":"m 1042 486 q 990 382 1033 425 q 625 278 886 278 l 486 278 q 304 382 356 278 q 278 486 282 425 l 625 486 l 625 694 l 208 694 l 208 486 q 26 590 78 486 q 0 694 4 633 l 0 903 q 104 1085 0 1033 q 208 1111 147 1107 l 625 1111 q 990 1007 886 1111 q 1042 903 1033 964 l 1042 486 m 625 104 q 594 31 625 61 q 521 0 564 0 q 447 31 478 0 q 417 104 417 61 q 447 178 417 147 q 521 208 478 208 q 594 178 564 208 q 625 104 625 147 z "},"@":{"ha":1097,"x_min":0,"x_max":1039,"o":"m 1039 169 q 872 3 1026 3 l 165 3 q 0 169 11 3 l 0 944 q 165 1111 11 1111 l 872 1111 q 1039 944 1026 1111 l 1039 169 m 1039 169 l 1039 944 q 872 1111 1026 1111 l 165 1111 q 0 944 11 1111 l 0 169 q 165 3 11 3 l 872 3 q 1039 169 1026 3 m 1039 169 q 872 3 1026 3 l 165 3 q 0 169 11 3 l 0 944 q 165 1111 11 1111 l 872 1111 q 1039 944 1026 1111 l 1039 169 m 872 169 l 872 944 l 165 944 l 165 169 l 872 169 m 872 169 l 165 169 l 165 944 l 872 944 l 872 169 m 872 169 l 872 944 l 165 944 l 165 169 l 872 169 m 821 360 q 585 242 804 242 l 585 557 l 347 557 l 347 478 l 544 478 q 426 360 536 360 l 347 360 q 229 242 339 242 l 229 754 q 347 872 238 872 l 585 872 q 821 754 821 864 l 821 360 z "},"A":{"ha":1097,"x_min":0,"x_max":1042,"o":"m 1042 208 q 990 104 1033 147 q 625 0 886 0 l 625 556 l 208 556 l 208 417 l 556 417 q 529 313 551 356 q 347 208 478 208 l 208 208 q 182 104 204 147 q 0 0 131 0 l 0 903 q 26 1007 4 964 q 208 1111 78 1111 l 625 1111 q 833 1085 747 1107 q 1042 903 1042 1033 l 1042 208 z "},"B":{"ha":1097,"x_min":0,"x_max":1042,"o":"m 1042 208 q 1015 104 1038 147 q 833 0 964 0 l 417 0 q 443 104 421 61 q 625 208 494 208 l 833 208 l 833 278 l 486 278 q 590 460 486 408 q 694 486 633 482 l 833 486 l 833 556 l 417 556 l 417 208 q 365 104 408 147 q 0 0 261 0 l 0 903 q 26 1007 4 964 q 208 1111 78 1111 l 833 1111 q 938 1085 894 1107 q 1042 903 1042 1033 l 1042 208 z "},"C":{"ha":1097,"x_min":0,"x_max":1042,"o":"m 1042 208 q 938 26 1042 78 q 833 0 894 4 l 208 0 q 26 104 78 0 q 0 208 4 147 l 0 903 q 26 1007 4 964 q 208 1111 78 1111 l 833 1111 q 938 1085 894 1107 q 1042 903 1042 1033 l 1042 556 l 417 556 l 417 208 l 1042 208 z "},"D":{"ha":1097,"x_min":0,"x_max":1042,"o":"m 1042 208 q 990 104 1033 147 q 625 0 886 0 l 208 0 q 235 104 213 61 q 417 208 286 208 l 625 208 l 625 556 l 208 556 l 208 208 q 182 104 204 147 q 0 0 131 0 l 0 903 q 26 1007 4 964 q 208 1111 78 1111 l 625 1111 q 833 1085 747 1107 q 1042 903 1042 1033 l 1042 208 z "},"E":{"ha":1097,"x_min":0,"x_max":1042,"o":"m 1042 208 q 938 26 1042 78 q 833 0 894 4 l 417 0 q 53 104 157 0 q 0 208 8 147 l 0 903 q 53 1007 8 964 q 417 1111 157 1111 l 833 1111 q 938 1085 894 1107 q 1042 903 1042 1033 l 1042 556 l 417 556 l 417 486 l 833 486 q 938 460 894 482 q 1042 278 1042 408 l 417 278 l 417 208 l 1042 208 z "},"F":{"ha":1097,"x_min":0,"x_max":1042,"o":"m 1042 278 l 417 278 l 417 0 q 53 104 157 0 q 0 208 8 147 l 0 903 q 53 1007 8 964 q 417 1111 157 1111 l 833 1111 q 938 1085 894 1107 q 1042 903 1042 1033 l 1042 556 l 417 556 l 417 486 l 833 486 q 938 460 894 482 q 1042 278 1042 408 z "},"G":{"ha":1097,"x_min":0,"x_max":1042,"o":"m 1042 208 q 938 26 1042 78 q 833 0 894 4 l 417 0 q 53 104 157 0 q 0 208 8 147 l 0 903 q 53 1007 8 964 q 417 1111 157 1111 l 833 1111 q 938 1085 894 1107 q 1042 903 1042 1033 l 1042 556 l 417 556 l 417 208 l 833 208 l 833 278 l 694 278 q 513 382 564 278 q 486 486 490 425 l 833 486 q 1015 382 964 486 q 1042 278 1038 339 l 1042 208 z "},"H":{"ha":1097,"x_min":0,"x_max":1042,"o":"m 1042 208 q 990 104 1033 147 q 625 0 886 0 l 625 1111 q 833 1085 747 1107 q 1042 903 1042 1033 l 1042 208 m 556 486 q 529 382 551 425 q 347 278 478 278 l 208 278 l 208 208 q 182 104 204 147 q 0 0 131 0 l 0 1111 q 182 1007 131 1111 q 208 903 204 964 l 208 833 l 556 833 l 556 486 z "},"I":{"ha":472,"x_min":0,"x_max":417,"o":"m 417 208 q 365 104 408 147 q 0 0 261 0 l 0 903 q 53 1007 8 964 q 417 1111 157 1111 l 417 208 z "},"J":{"ha":1097,"x_min":0,"x_max":1042,"o":"m 1042 208 q 990 104 1033 147 q 625 0 886 0 l 208 0 q 104 26 147 4 q 0 208 0 78 l 0 417 q 26 521 4 478 q 208 625 78 625 l 208 208 l 625 208 l 625 903 q 678 1007 633 964 q 1042 1111 782 1111 l 1042 208 z "},"K":{"ha":1097,"x_min":0,"x_max":1042,"o":"m 1042 0 l 833 0 q 651 104 703 0 q 625 208 629 147 l 625 278 l 417 278 l 417 208 q 365 104 408 147 q 0 0 261 0 l 0 1111 q 365 1007 261 1111 q 417 903 408 964 l 417 833 l 833 833 l 833 1111 q 938 1085 894 1107 q 1042 903 1042 1033 l 1042 486 q 1015 382 1038 425 q 833 278 964 278 l 833 208 q 1015 104 964 208 q 1042 0 1038 61 z "},"L":{"ha":1097,"x_min":0,"x_max":1042,"o":"m 1042 0 l 417 0 q 53 104 157 0 q 0 208 8 147 l 0 1111 q 365 1007 261 1111 q 417 903 408 964 l 417 417 l 833 417 q 1015 313 964 417 q 1042 208 1038 269 l 1042 0 z "},"M":{"ha":1167,"x_min":0,"x_max":1111,"o":"m 1111 208 q 1060 104 1103 147 q 694 0 956 0 l 694 556 l 556 556 l 556 208 q 451 26 556 78 q 347 0 408 4 l 347 556 l 208 556 l 208 208 q 182 104 204 147 q 0 0 131 0 l 0 903 q 26 1007 4 964 q 208 1111 78 1111 l 694 1111 q 903 1085 817 1107 q 1111 903 1111 1033 l 1111 208 z "},"N":{"ha":1097,"x_min":0,"x_max":1042,"o":"m 1042 208 q 990 104 1033 147 q 625 0 886 0 l 625 556 l 208 556 l 208 208 q 182 104 204 147 q 0 0 131 0 l 0 903 q 26 1007 4 964 q 208 1111 78 1111 l 625 1111 q 833 1085 747 1107 q 1042 903 1042 1033 l 1042 208 z "},"O":{"ha":1097,"x_min":0,"x_max":1042,"o":"m 1042 208 q 990 104 1033 147 q 625 0 886 0 l 208 0 q 26 104 78 0 q 0 208 4 147 l 0 903 q 26 1007 4 964 q 208 1111 78 1111 l 625 1111 q 833 1085 747 1107 q 1042 903 1042 1033 l 1042 208 m 625 208 l 625 556 l 208 556 l 208 208 l 625 208 z "},"P":{"ha":1097,"x_min":0,"x_max":1042,"o":"m 1042 486 q 1015 382 1038 425 q 833 278 964 278 l 486 278 q 513 382 490 339 q 694 486 564 486 l 833 486 l 833 556 l 417 556 l 417 208 q 365 104 408 147 q 0 0 261 0 l 0 903 q 53 1007 8 964 q 417 1111 157 1111 l 833 1111 q 938 1085 894 1107 q 1042 903 1042 1033 l 1042 486 z "},"Q":{"ha":1306,"x_min":0,"x_max":1250,"o":"m 1250 0 l 208 0 q 26 104 78 0 q 0 208 4 147 l 0 903 q 26 1007 4 964 q 208 1111 78 1111 l 625 1111 q 833 1085 747 1107 q 1042 903 1042 1033 l 1042 208 q 1224 104 1172 208 q 1250 0 1246 61 m 625 208 l 625 556 l 208 556 l 208 208 l 625 208 z "},"R":{"ha":1097,"x_min":0,"x_max":1042,"o":"m 1042 0 l 833 0 q 651 104 703 0 q 625 208 629 147 l 625 278 l 417 278 l 417 208 q 365 104 408 147 q 0 0 261 0 l 0 903 q 208 1085 0 1033 q 417 1111 296 1107 l 833 1111 q 938 1085 894 1107 q 1042 903 1042 1033 l 1042 486 q 1015 382 1038 425 q 833 278 964 278 l 833 208 q 1015 104 964 208 q 1042 0 1038 61 m 833 486 l 833 556 l 417 556 l 417 486 l 833 486 z "},"S":{"ha":1097,"x_min":0,"x_max":1042,"o":"m 1042 208 q 938 26 1042 78 q 833 0 894 4 l 0 0 q 208 182 0 131 q 417 208 296 204 l 833 208 l 833 278 l 417 278 q 53 382 157 278 q 0 486 8 425 l 0 903 q 53 1007 8 964 q 417 1111 157 1111 l 833 1111 q 938 1085 894 1107 q 1042 903 1042 1033 l 1042 556 l 417 556 l 417 486 l 833 486 q 938 460 894 482 q 1042 278 1042 408 l 1042 208 z "},"T":{"ha":1097,"x_min":0,"x_max":1042,"o":"m 1042 556 l 694 556 l 694 208 q 563 26 694 78 q 431 0 507 4 l 431 556 l 0 556 l 0 903 q 53 1007 8 964 q 417 1111 157 1111 l 833 1111 q 938 1085 894 1107 q 1042 903 1042 1033 l 1042 556 z "},"U":{"ha":1097,"x_min":0,"x_max":1042,"o":"m 1042 208 q 990 104 1033 147 q 625 0 886 0 l 208 0 q 104 26 147 4 q 0 208 0 78 l 0 903 q 26 1007 4 964 q 208 1111 78 1111 l 208 556 l 625 556 l 625 1111 q 833 1085 747 1107 q 1042 903 1042 1033 l 1042 208 z "},"V":{"ha":1097,"x_min":0,"x_max":1042,"o":"m 1042 208 q 833 26 1042 78 q 625 0 747 4 l 417 0 q 53 104 157 0 q 0 208 8 147 l 0 1111 q 208 1085 122 1107 q 417 903 417 1033 l 417 556 l 833 556 l 833 903 q 938 1085 833 1033 q 1042 1111 981 1107 l 1042 208 z "},"W":{"ha":1167,"x_min":0,"x_max":1111,"o":"m 1111 208 q 1060 104 1103 147 q 694 0 956 0 l 208 0 q 104 26 147 4 q 0 208 0 78 l 0 903 q 26 1007 4 964 q 208 1111 78 1111 l 208 556 l 347 556 l 347 903 q 451 1085 347 1033 q 556 1111 494 1107 l 556 556 l 694 556 l 694 903 q 747 1007 703 964 q 1111 1111 851 1111 l 1111 208 z "},"X":{"ha":1097,"x_min":0,"x_max":1042,"o":"m 1042 0 l 625 0 q 443 104 494 0 q 417 208 421 147 q 313 26 417 78 q 208 0 269 4 l 0 0 q 104 182 0 131 q 208 208 147 204 l 208 278 q 26 382 78 278 q 0 486 4 425 l 0 1111 q 104 1085 61 1107 q 208 903 208 1033 l 208 833 l 625 833 l 625 903 q 833 1085 625 1033 q 1042 1111 921 1107 l 1042 486 q 990 382 1033 425 q 625 278 886 278 l 625 208 q 990 104 886 208 q 1042 0 1033 61 z "},"Y":{"ha":1097,"x_min":0,"x_max":1042,"o":"m 1042 486 q 990 382 1033 425 q 625 278 886 278 l 625 208 q 361 0 554 0 l 361 278 l 208 278 q 26 382 78 278 q 0 486 4 425 l 0 1111 q 104 1085 61 1107 q 208 903 208 1033 l 208 833 l 625 833 l 625 903 q 833 1085 625 1033 q 1042 1111 921 1107 l 1042 486 z "},"Z":{"ha":1097,"x_min":0,"x_max":1042,"o":"m 1042 0 l 208 0 q 104 26 147 4 q 0 208 0 78 l 0 278 q 104 460 0 408 q 208 486 147 482 l 625 486 l 625 556 l 0 556 l 0 903 q 104 1085 0 1033 q 208 1111 147 1107 l 625 1111 q 990 1007 886 1111 q 1042 903 1033 964 l 1042 486 q 990 382 1033 425 q 625 278 886 278 l 208 278 l 208 208 l 625 208 q 833 182 747 204 q 1042 0 1042 131 z "},"[":{"ha":750,"x_min":0,"x_max":694,"o":"m 694 208 q 590 26 694 78 q 486 0 547 4 l 417 0 q 53 104 157 0 q 0 208 8 147 l 0 903 q 53 1007 8 964 q 417 1111 157 1111 l 486 1111 q 590 1085 547 1107 q 694 903 694 1033 l 694 694 l 417 694 l 417 208 l 694 208 z "},"]":{"ha":750,"x_min":0,"x_max":694,"o":"m 694 208 q 643 104 686 147 q 278 0 539 0 l 208 0 q 104 26 147 4 q 0 208 0 78 l 278 208 l 278 694 l 0 694 l 0 903 q 104 1085 0 1033 q 208 1111 147 1107 l 278 1111 q 643 1007 539 1111 q 694 903 686 964 l 694 208 z "},"_":{"ha":889,"x_min":0,"x_max":833,"o":"m 833 0 l 208 0 q 26 104 78 0 q 0 208 4 147 l 0 278 l 625 278 q 807 174 756 278 q 833 69 829 131 l 833 0 z "},"`":{"ha":333,"x_min":0,"x_max":278,"o":"m 278 833 l 208 833 q 104 860 147 838 q 0 1042 0 911 l 0 1111 l 69 1111 q 174 1085 131 1107 q 278 903 278 1033 l 278 833 z "},"a":{"ha":889,"x_min":0,"x_max":833,"o":"m 833 167 q 667 21 833 63 q 500 0 597 4 l 167 0 q 0 167 13 0 l 0 222 q 167 389 0 376 l 500 389 l 500 444 l 0 444 l 0 722 q 167 889 13 889 l 500 889 q 667 868 597 886 q 833 722 833 826 l 833 167 m 500 167 l 500 222 l 167 222 l 167 167 l 500 167 z "},"b":{"ha":889,"x_min":0,"x_max":833,"o":"m 833 167 q 792 83 826 118 q 500 0 708 0 l 167 0 q 0 156 13 0 l 0 889 q 167 722 154 889 l 500 722 q 667 701 597 719 q 833 556 833 660 l 833 167 m 500 167 l 500 278 l 167 278 l 167 167 l 500 167 z "},"c":{"ha":889,"x_min":0,"x_max":833,"o":"m 833 167 q 667 0 833 13 l 167 0 q 0 167 13 0 l 0 722 q 167 889 13 889 l 667 889 q 833 722 833 876 l 833 444 l 333 444 l 333 167 l 833 167 z "},"d":{"ha":889,"x_min":0,"x_max":833,"o":"m 833 156 q 792 78 826 110 q 500 0 708 0 l 167 0 q 0 167 13 0 l 0 556 q 167 722 0 710 l 500 722 q 542 806 507 771 q 833 889 625 889 l 833 156 m 500 167 l 500 278 l 167 278 l 167 167 l 500 167 z "},"e":{"ha":889,"x_min":0,"x_max":833,"o":"m 833 167 q 667 0 833 13 l 333 0 q 42 83 125 0 q 0 167 7 118 l 0 722 q 42 806 7 771 q 333 889 125 889 l 667 889 q 833 722 833 876 l 833 389 q 667 222 821 222 l 333 222 l 333 167 l 833 167 m 667 389 l 667 444 l 333 444 l 333 389 l 667 389 z "},"f":{"ha":889,"x_min":0,"x_max":833,"o":"m 833 222 l 556 222 l 556 0 q 264 83 347 0 q 222 167 229 118 l 222 222 l 0 222 l 0 500 q 167 667 0 654 l 222 667 l 222 733 q 264 811 229 779 q 556 889 347 889 l 667 889 q 833 722 833 876 l 556 722 l 556 667 l 667 667 q 833 500 833 654 l 833 222 z "},"g":{"ha":889,"x_min":0,"x_max":833,"o":"m 833 167 q 792 83 826 118 q 500 0 708 0 l 167 0 q 0 167 0 13 l 500 167 l 500 222 l 167 222 q 0 389 13 222 l 0 722 q 167 889 0 876 l 500 889 q 792 806 708 889 q 833 722 826 771 l 833 167 m 500 389 l 500 444 l 167 444 l 167 389 l 500 389 z "},"h":{"ha":889,"x_min":0,"x_max":833,"o":"m 833 167 q 792 83 826 118 q 500 0 708 0 l 500 278 l 167 278 l 167 167 q 0 0 154 0 l 0 889 q 167 722 154 889 l 489 722 q 661 701 589 719 q 833 556 833 660 l 833 167 z "},"i":{"ha":389,"x_min":0,"x_max":333,"o":"m 333 833 q 292 750 326 785 q 0 667 208 667 l 0 722 q 42 806 7 771 q 333 889 125 889 l 333 833 m 333 167 q 292 83 326 118 q 0 0 208 0 l 0 444 q 42 528 7 493 q 333 611 125 611 l 333 167 z "},"j":{"ha":889,"x_min":0,"x_max":833,"o":"m 833 833 q 792 750 826 785 q 500 667 708 667 l 500 722 q 542 806 507 771 q 833 889 625 889 l 833 833 m 833 167 q 792 83 826 118 q 500 0 708 0 l 167 0 q 0 167 0 13 l 0 278 q 167 444 13 444 l 167 167 l 500 167 l 500 444 q 542 528 507 493 q 833 611 625 611 l 833 167 z "},"k":{"ha":889,"x_min":0,"x_max":833,"o":"m 833 0 l 667 0 q 500 167 513 0 l 500 222 l 333 222 l 333 167 q 292 83 326 118 q 0 0 208 0 l 0 889 q 292 806 208 889 q 333 722 326 771 l 333 667 l 667 667 l 667 889 q 833 722 833 876 l 833 389 q 667 222 821 222 l 667 167 q 833 0 821 167 z "},"l":{"ha":389,"x_min":0,"x_max":333,"o":"m 333 0 q 42 83 125 0 q 0 167 7 118 l 0 889 q 292 806 208 889 q 333 722 326 771 l 333 0 z "},"m":{"ha":944,"x_min":0,"x_max":889,"o":"m 889 167 q 847 83 882 118 q 556 0 764 0 l 556 444 l 444 444 l 444 167 q 278 0 444 13 l 278 444 l 167 444 l 167 167 q 0 0 154 0 l 0 722 q 167 889 13 889 l 556 889 q 722 868 653 886 q 889 722 889 826 l 889 167 z "},"n":{"ha":889,"x_min":0,"x_max":833,"o":"m 833 167 q 792 83 826 118 q 500 0 708 0 l 500 444 l 167 444 l 167 167 q 0 0 154 0 l 0 722 q 167 889 13 889 l 500 889 q 667 868 597 886 q 833 722 833 826 l 833 167 z "},"o":{"ha":889,"x_min":0,"x_max":833,"o":"m 833 167 q 792 83 826 118 q 500 0 708 0 l 167 0 q 0 167 13 0 l 0 722 q 167 889 13 889 l 500 889 q 667 868 597 886 q 833 722 833 826 l 833 167 m 500 167 l 500 444 l 167 444 l 167 167 l 500 167 z "},"p":{"ha":889,"x_min":0,"x_max":833,"o":"m 833 389 q 667 222 821 222 l 389 222 q 556 389 401 389 l 667 389 l 667 444 l 333 444 l 333 167 q 292 83 326 118 q 0 0 208 0 l 0 722 q 42 806 7 771 q 333 889 125 889 l 667 889 q 833 722 833 876 l 833 389 z "},"q":{"ha":889,"x_min":0,"x_max":833,"o":"m 833 0 q 542 83 625 0 q 500 167 507 118 l 500 444 l 167 444 l 167 389 l 278 389 q 444 222 432 389 l 167 222 q 0 389 13 222 l 0 722 q 167 889 0 876 l 500 889 q 792 806 708 889 q 833 722 826 771 l 833 0 z "},"r":{"ha":889,"x_min":0,"x_max":833,"o":"m 833 444 l 333 444 l 333 0 q 42 83 125 0 q 0 167 7 118 l 0 722 q 42 806 7 771 q 333 889 125 889 l 667 889 q 833 722 833 876 l 833 444 z "},"s":{"ha":889,"x_min":0,"x_max":833,"o":"m 833 167 q 667 0 833 13 l 0 0 q 167 146 0 104 q 333 167 236 164 l 667 167 l 667 222 l 333 222 q 42 306 125 222 q 0 389 7 340 l 0 722 q 42 806 7 771 q 333 889 125 889 l 667 889 q 833 722 833 876 l 833 444 l 333 444 l 333 389 l 667 389 q 833 222 833 376 l 833 167 z "},"t":{"ha":889,"x_min":0,"x_max":833,"o":"m 833 278 l 556 278 l 556 167 l 611 167 q 778 0 765 167 l 556 0 q 264 83 347 0 q 222 167 229 118 l 222 278 l 0 278 l 0 556 q 167 722 0 710 l 222 722 l 222 889 q 514 806 431 889 q 556 722 549 771 l 667 722 q 833 556 833 710 l 833 278 z "},"u":{"ha":889,"x_min":0,"x_max":833,"o":"m 833 167 q 792 83 826 118 q 500 0 708 0 l 167 0 q 0 167 0 13 l 0 722 q 167 889 13 889 l 167 444 l 500 444 l 500 889 q 667 868 597 886 q 833 722 833 826 l 833 167 z "},"v":{"ha":889,"x_min":0,"x_max":833,"o":"m 833 167 q 667 21 833 63 q 500 0 597 4 l 333 0 q 42 83 125 0 q 0 167 7 118 l 0 889 q 167 868 97 886 q 333 722 333 826 l 333 444 l 667 444 l 667 722 q 833 889 667 876 l 833 167 z "},"w":{"ha":944,"x_min":0,"x_max":889,"o":"m 889 167 q 847 83 882 118 q 556 0 764 0 l 167 0 q 0 167 0 13 l 0 722 q 167 889 13 889 l 167 444 l 278 444 l 278 722 q 444 889 278 876 l 444 444 l 556 444 l 556 722 q 597 806 563 771 q 889 889 681 889 l 889 167 z "},"x":{"ha":889,"x_min":0,"x_max":833,"o":"m 833 0 l 500 0 q 333 167 346 0 q 167 0 333 13 l 0 0 q 167 167 0 154 l 167 222 q 0 389 13 222 l 0 889 q 167 722 167 876 l 167 667 l 500 667 l 500 722 q 667 868 500 826 q 833 889 736 886 l 833 389 q 792 306 826 340 q 500 222 708 222 l 500 167 q 792 83 708 167 q 833 0 826 49 z "},"y":{"ha":889,"x_min":0,"x_max":833,"o":"m 833 389 q 792 306 826 340 q 500 222 708 222 l 500 167 q 333 0 488 0 l 333 222 l 167 222 q 0 389 13 222 l 0 889 q 167 722 167 876 l 167 667 l 500 667 l 500 722 q 667 868 500 826 q 833 889 736 886 l 833 389 z "},"z":{"ha":889,"x_min":0,"x_max":833,"o":"m 833 0 l 167 0 q 0 167 0 13 l 0 222 q 167 389 0 376 l 500 389 l 500 444 l 0 444 l 0 722 q 167 889 0 876 l 500 889 q 792 806 708 889 q 833 722 826 771 l 833 389 q 792 306 826 340 q 500 222 708 222 l 167 222 l 167 167 l 500 167 q 667 146 597 164 q 833 0 833 104 z "},"{":{"ha":750,"x_min":0,"x_max":694,"o":"m 694 208 q 590 26 694 78 q 486 0 547 4 l 417 0 q 53 104 157 0 q 0 208 8 147 l 0 903 q 53 1007 8 964 q 417 1111 157 1111 l 486 1111 q 590 1085 547 1107 q 694 903 694 1033 l 694 694 l 417 694 l 417 208 l 694 208 z "},"}":{"ha":750,"x_min":0,"x_max":694,"o":"m 694 208 q 643 104 686 147 q 278 0 539 0 l 208 0 q 104 26 147 4 q 0 208 0 78 l 278 208 l 278 694 l 0 694 l 0 903 q 104 1085 0 1033 q 208 1111 147 1107 l 278 1111 q 643 1007 539 1111 q 694 903 686 964 l 694 208 z "}}}
